<svg xmlns="http://www.w3.org/2000/svg" version="1.1" xmlns:xlink="http://www.w3.org/1999/xlink" xmlns:svgjs="http://svgjs.dev/svgjs" width="1500" height="492" viewBox="0 0 1500 492"><g transform="matrix(1,0,0,1,-0.9090909090909918,-0.45129189658678115)"><svg viewBox="0 0 396 130" data-background-color="#ffffff" preserveAspectRatio="xMidYMid meet" height="492" width="1500" xmlns="http://www.w3.org/2000/svg" xmlns:xlink="http://www.w3.org/1999/xlink"><g id="tight-bounds" transform="matrix(1,0,0,1,0.2400000000000091,0.11924379381358108)"><svg viewBox="0 0 395.52 129.7613687021204" height="129.7613687021204" width="395.52"><g><svg viewBox="0 0 626.4663850530833 205.5297723765111" height="129.7613687021204" width="395.52"><g transform="matrix(1,0,0,1,230.9463850530833,61.014235658811195)"><svg viewBox="0 0 395.52 83.5013010588887" height="83.5013010588887" width="395.52"><g id="textblocktransform"><svg viewBox="0 0 395.52 83.5013010588887" height="83.5013010588887" width="395.52" id="textblock"><g><svg viewBox="0 0 395.52 53.83142012862854" height="53.83142012862854" width="395.52"><g transform="matrix(1,0,0,1,0,0)"><svg width="395.52" viewBox="0.35 -38.65 289.38 39.15" height="53.83142012862854" data-palette-color="#ff0033"><g class="wordmark-text-0" data-fill-palette-color="primary" id="text-0"><path d="M15.65-37.8L15.65-37.8Q13.75-37.8 13.15-36.38 12.55-34.95 12.55-31.8L12.55-31.8 12.55-23.8 19.15-23.8 19.15-22.9 12.55-22.9 12.55-0.9 18.65-0.9 18.65 0 0.5 0 0.5-0.9 3.25-0.9 3.25-22.9 0.35-22.9 0.35-23.8 3.25-23.8 3.25-24Q3.25-31.2 6-34.93 8.75-38.65 15.2-38.65L15.2-38.65Q19.45-38.65 21.3-36.98 23.15-35.3 23.15-33.1 23.15-30.9 22-29.8 20.85-28.7 18.95-28.7 17.05-28.7 16.03-29.68 15-30.65 15-31.93 15-33.2 15.3-34.4L15.3-34.4 17.2-34.4Q18.2-37.8 15.65-37.8ZM32.8 0.5Q26.35 0.5 23.12-2.83 19.9-6.15 19.9-12.08 19.9-18 23.52-21.15 27.15-24.3 32.75-24.3L32.75-24.3Q44.1-24.3 43.65-12.9L43.65-12.9 29.55-12.9 29.55-10.95Q29.55-6.05 30.8-3.55 32.05-1.05 35.15-1.05L35.15-1.05Q40.95-1.05 42.75-7.25L42.75-7.25 43.65-7.1Q42.7-3.5 40.22-1.5 37.75 0.5 32.8 0.5L32.8 0.5ZM29.6-16.35L29.6-13.9 34.75-13.9 34.75-16.35Q34.75-20.4 34.27-21.88 33.8-23.35 32.37-23.35 30.95-23.35 30.27-21.78 29.6-20.2 29.6-16.35L29.6-16.35ZM57.45-11.75L57.45-11.75 58.9-11.75 58.9-15.6Q58.9-20.35 58.37-21.98 57.85-23.6 56.35-23.6L56.35-23.6Q55.45-23.6 54.72-23.13 54-22.65 54-21.83 54-21 54.3-20.15L54.3-20.15 55.55-20.15Q55.95-19.1 55.95-17.63 55.95-16.15 54.7-15.08 53.45-14 51.55-14L51.55-14Q47.25-14 47.25-18.15L47.25-18.15Q47.25-24.3 57.7-24.3L57.7-24.3Q63.65-24.3 65.92-22.28 68.2-20.25 68.2-14.85L68.2-14.85 68.2-4.7Q68.2-2.1 69.65-2.1L69.65-2.1Q71.35-2.1 71.65-7.25L71.65-7.25 72.4-7.2Q72.2-2.8 70.75-1.15 69.3 0.5 66 0.5L66 0.5Q60 0.5 59.1-3.2L59.1-3.2Q58.45-1.3 57.15-0.4 55.85 0.5 53.35 0.5L53.35 0.5Q45.95 0.5 45.95-5.55L45.95-5.55Q45.95-9.1 48.77-10.43 51.6-11.75 57.45-11.75ZM55.45-5.6Q55.45-3 55.72-2.25 56-1.5 56.77-1.5 57.55-1.5 58.22-2.78 58.9-4.05 58.9-6.3L58.9-6.3 58.9-10.95 58.55-10.95Q55.45-10.95 55.45-6.4L55.45-6.4 55.45-5.6ZM74.64 0.5L74.04 0.5 74.04-8.45 74.64-8.45Q75.94-4.1 78.14-2.35 80.34-0.6 83.64-0.6L83.64-0.6Q88.74-0.6 88.74-3.85L88.74-3.85Q88.74-5.25 87.49-5.95L87.49-5.95Q85.54-7.05 82.49-7.65L82.49-7.65Q79.09-8.55 76.79-10.05L76.79-10.05Q74.04-11.85 74.04-15.75 74.04-19.65 76.44-21.98 78.84-24.3 82.84-24.3L82.84-24.3Q85.29-24.3 87.89-23.15L87.89-23.15Q88.84-22.75 89.34-22.75 89.84-22.75 90.19-23.1 90.54-23.45 91.04-24.4L91.04-24.4 91.59-24.4 91.59-16.75 90.99-16.75Q88.44-23.25 83.09-23.25L83.09-23.25Q80.74-23.25 79.59-22.43 78.44-21.6 78.44-20.35L78.44-20.35Q78.44-19.6 78.79-19.18 79.14-18.75 79.34-18.55 79.54-18.35 79.99-18.13 80.44-17.9 80.74-17.78 81.04-17.65 81.67-17.45 82.29-17.25 82.59-17.2L82.59-17.2Q85.99-16.35 87.49-15.73 88.99-15.1 90.34-14.2L90.34-14.2Q93.09-12.3 93.09-8.08 93.09-3.85 90.59-1.68 88.09 0.5 83.74 0.5L83.74 0.5Q80.64 0.5 77.74-0.95L77.74-0.95Q77.14-1.35 76.79-1.35L76.79-1.35Q75.69-1.35 74.64 0.5L74.64 0.5ZM97.09-7.15L97.09-7.15 97.09-22.9 94.34-22.9 94.34-23.8 97.09-23.8 97.09-30.25 106.39-32.55 106.39-23.8 112.89-23.8 112.89-22.9 106.39-22.9 106.39-6.05Q106.39-3.7 106.87-2.6 107.34-1.5 108.84-1.5 110.34-1.5 111.47-3 112.59-4.5 112.94-7.1L112.94-7.1 113.79-7Q113.39-3.55 111.59-1.53 109.79 0.5 105.64 0.5 101.49 0.5 99.29-1.15 97.09-2.8 97.09-7.15Z" fill="#ff0033" data-fill-palette-color="primary"></path><path d="M139.99-22.4L139.99-22.4Q138.14-22.4 136.74-20 135.34-17.6 135.34-14.3L135.34-14.3 135.34-0.9 138.89-0.9 138.89 0 123.29 0 123.29-0.9 126.04-0.9 126.04-22.9 123.29-22.9 123.29-23.8 135.34-23.8 135.34-19Q135.99-21.55 137.84-22.93 139.69-24.3 142.04-24.3 144.39-24.3 145.86-22.98 147.34-21.65 147.34-19.23 147.34-16.8 146.24-15.5 145.14-14.2 142.86-14.2 140.59-14.2 139.51-15.7 138.44-17.2 139.24-19.85L139.24-19.85 141.04-19.85Q142.29-22.4 139.99-22.4ZM177.29-0.9L177.29 0 165.89 0 165.34-3.65Q164.54-1.65 162.96-0.58 161.39 0.5 158.29 0.5L158.29 0.5Q150.54 0.5 150.54-7.85L150.54-7.85 150.54-22.9 147.74-22.9 147.74-23.8 159.84-23.8 159.84-6.65Q159.84-3.65 160.26-2.7 160.69-1.75 161.96-1.75 163.24-1.75 164.24-3.3 165.24-4.85 165.24-7.6L165.24-7.6 165.24-22.9 162.94-22.9 162.94-23.8 174.54-23.8 174.54-0.9 177.29-0.9ZM178.38-22.9L178.38-23.8 190.43-23.8 190.43-19.2Q191.23-21.5 192.88-22.9 194.53-24.3 197.88-24.3L197.88-24.3Q205.63-24.3 205.63-15.95L205.63-15.95 205.63-0.9 208.43-0.9 208.43 0 194.28 0 194.28-0.9 196.33-0.9 196.33-17.15Q196.33-20.15 195.93-21.03 195.53-21.9 194.48-21.9L194.48-21.9Q192.88-21.9 191.66-19.8 190.43-17.7 190.43-14.7L190.43-14.7 190.43-0.9 192.58-0.9 192.58 0 178.38 0 178.38-0.9 181.13-0.9 181.13-22.9 178.38-22.9ZM209.18-22.9L209.18-23.8 221.23-23.8 221.23-19.2Q222.03-21.5 223.68-22.9 225.33-24.3 228.68-24.3L228.68-24.3Q236.43-24.3 236.43-15.95L236.43-15.95 236.43-0.9 239.23-0.9 239.23 0 225.08 0 225.08-0.9 227.13-0.9 227.13-17.15Q227.13-20.15 226.73-21.03 226.33-21.9 225.28-21.9L225.28-21.9Q223.68-21.9 222.46-19.8 221.23-17.7 221.23-14.7L221.23-14.7 221.23-0.9 223.38-0.9 223.38 0 209.18 0 209.18-0.9 211.93-0.9 211.93-22.9 209.18-22.9ZM253.03 0.5Q246.58 0.5 243.35-2.83 240.13-6.15 240.13-12.08 240.13-18 243.75-21.15 247.38-24.3 252.98-24.3L252.98-24.3Q264.33-24.3 263.88-12.9L263.88-12.9 249.78-12.9 249.78-10.95Q249.78-6.05 251.03-3.55 252.28-1.05 255.38-1.05L255.38-1.05Q261.18-1.05 262.98-7.25L262.98-7.25 263.88-7.1Q262.93-3.5 260.45-1.5 257.98 0.5 253.03 0.5L253.03 0.5ZM249.83-16.35L249.83-13.9 254.98-13.9 254.98-16.35Q254.98-20.4 254.5-21.88 254.03-23.35 252.6-23.35 251.18-23.35 250.5-21.78 249.83-20.2 249.83-16.35L249.83-16.35ZM282.38-22.4L282.38-22.4Q280.53-22.4 279.13-20 277.73-17.6 277.73-14.3L277.73-14.3 277.73-0.9 281.28-0.9 281.28 0 265.68 0 265.68-0.9 268.43-0.9 268.43-22.9 265.68-22.9 265.68-23.8 277.73-23.8 277.73-19Q278.38-21.55 280.23-22.93 282.08-24.3 284.43-24.3 286.78-24.3 288.25-22.98 289.73-21.65 289.73-19.23 289.73-16.8 288.63-15.5 287.53-14.2 285.25-14.2 282.98-14.2 281.9-15.7 280.83-17.2 281.63-19.85L281.63-19.85 283.43-19.85Q284.68-22.4 282.38-22.4Z" fill="#000000" data-fill-palette-color="secondary"></path></g></svg></g></svg></g><g transform="matrix(1,0,0,1,0,66.53972646691464)"><svg viewBox="0 0 232.20979199999996 16.961574591974056" height="16.961574591974056" width="232.20979199999996"><g transform="matrix(1,0,0,1,0,0)"><svg width="232.20979199999996" viewBox="0.9 -35.05 616.69 45.05" height="16.961574591974056" data-palette-color="#000000"><path d="M5.85 0L5.85-1.5 24.25-1.5 13.65-30.65 2.5 0 0.9 0 13.65-35.05 26.4 0 5.85 0ZM50.9 0L50.9-1.5 64.7-1.5 58.65-18.1 61.45-19.7Q64.9-21.6 64.9-25.75L64.9-25.75Q64.9-33.5 53.09-33.5L53.09-33.5 48.5-33.5 48.5 0 47 0 47-35 53.09-35Q59.7-35 63.05-32.58 66.4-30.15 66.4-25.75L66.4-25.75Q66.4-20.75 62.2-18.4L62.2-18.4 60.5-17.45 66.84 0 50.9 0ZM92.59-3.95L93.69-2.95Q90.94 0.5 84.69 0.5 78.44 0.5 75.74-3.05 73.04-6.6 73.04-14.5 73.04-22.4 75.74-25.95 78.44-29.5 84.69-29.5L84.69-29.5Q91.94-29.5 94.54-24.75L94.54-24.75 82.29-14.5 79.94-14.5 92.59-25.05Q90.39-28 84.69-28L84.69-28Q82.19-28 80.49-27.48 78.79-26.95 77.37-25.53 75.94-24.1 75.24-21.38 74.54-18.65 74.54-14.5 74.54-10.35 75.24-7.63 75.94-4.9 77.37-3.48 78.79-2.05 80.49-1.53 82.19-1 84.69-1L84.69-1Q90.39-1 92.59-3.95L92.59-3.95ZM109.34-29.6L109.34-29.6Q115.54-29.6 118.14-26.85L118.14-26.85 117.14-25.75Q114.74-28.1 109.54-28.1L109.54-28.1Q101.74-28.1 101.74-21.9L101.74-21.9Q101.74-19.5 103.64-18.07 105.54-16.65 108.27-15.9 110.99-15.15 113.72-14.33 116.44-13.5 118.34-11.68 120.24-9.85 120.24-6.9L120.24-6.9Q120.24-3.45 117.39-1.4 114.54 0.65 109.14 0.65L109.14 0.65Q106.49 0.65 103.92-0.05 101.34-0.75 100.09-2.1L100.09-2.1 101.09-3.2Q103.64-0.85 108.94-0.85L108.94-0.85Q113.79-0.85 116.27-2.65 118.74-4.45 118.74-6.85L118.74-6.85Q118.74-9.35 116.84-10.9 114.94-12.45 112.22-13.23 109.49-14 106.77-14.83 104.04-15.65 102.14-17.4 100.24-19.15 100.24-22L100.24-22Q100.24-25.85 102.82-27.73 105.39-29.6 109.34-29.6ZM123.79-29L146.29-29 146.29-27.5 135.79-27.5 135.79 0 134.29 0 134.29-27.5 123.79-27.5 123.79-29ZM154.69 0L154.69-1.5 170.99-1.5 160.74-25.65 149.84 0 148.24 0 160.74-29.5 173.24 0 154.69 0ZM178.43-29L179.93-29 179.93-14.5Q179.93-7.05 182.31-4.03 184.68-1 188.83-1 192.98-1 195.36-4.03 197.73-7.05 197.73-14.5L197.73-14.5 197.73-29 199.23-29 199.23-14.5Q199.23 0.5 188.83 0.5 178.43 0.5 178.43-14.5L178.43-14.5 178.43-29ZM220.43-14.55L220.43-14.55 227.23 0 225.58 0 218.58-15Q218.68-15.05 219.46-15.43 220.23-15.8 220.53-15.98 220.83-16.15 221.53-16.6 222.23-17.05 222.58-17.48 222.93-17.9 223.36-18.48 223.78-19.05 223.98-19.78 224.18-20.5 224.18-21.35L224.18-21.35Q224.18-24.5 221.18-26 218.18-27.5 213.73-27.5L213.73-27.5 209.73-27.5 209.73 0 208.23 0 208.23-29 213.73-29Q219.63-29 222.66-26.95 225.68-24.9 225.68-21.35L225.68-21.35Q225.68-19.05 224.13-17.28 222.58-15.5 220.43-14.55ZM236.68 0L236.68-1.5 252.98-1.5 242.73-25.65 231.83 0 230.23 0 242.73-29.5 255.23 0 236.68 0ZM262.43 0L260.93 0 260.93-29 262.43-29 278.73-2.75 278.73-29 280.23-29 280.23 0 278.73 0 262.43-26.3 262.43 0ZM285.97-29L308.47-29 308.47-27.5 297.97-27.5 297.97 0 296.47 0 296.47-27.5 285.97-27.5 285.97-29ZM333.47-0.05L333.47-1.5 353.17-1.5 353.17-31.45 341.92-7.35 330.67-31.5 330.67 0 329.17-0.05 329.17-35.05 330.67-35.05 341.92-10.9 353.17-35 354.67-35.05 354.67 0 333.47-0.05ZM367.02 0L367.02-1.5 383.32-1.5 373.07-25.65 362.17 0 360.57 0 373.07-29.5 385.57 0 367.02 0ZM403.46-14.55L403.46-14.55 410.26 0 408.61 0 401.61-15Q401.71-15.05 402.49-15.43 403.26-15.8 403.56-15.98 403.86-16.15 404.56-16.6 405.26-17.05 405.61-17.48 405.96-17.9 406.39-18.48 406.81-19.05 407.01-19.78 407.21-20.5 407.21-21.35L407.21-21.35Q407.21-24.5 404.21-26 401.21-27.5 396.76-27.5L396.76-27.5 392.76-27.5 392.76 0 391.26 0 391.26-29 396.76-29Q402.66-29 405.69-26.95 408.71-24.9 408.71-21.35L408.71-21.35Q408.71-19.05 407.16-17.28 405.61-15.5 403.46-14.55ZM418.56 0L417.06 0 417.06-29 418.56-29 418.56 0ZM437.71 0L435.56 0 420.16-15.3 433.96-29 436.11-29 422.31-15.3 437.71 0ZM461.11-3.95L462.21-2.95Q459.46 0.5 453.21 0.5 446.96 0.5 444.26-3.05 441.56-6.6 441.56-14.5 441.56-22.4 444.26-25.95 446.96-29.5 453.21-29.5L453.21-29.5Q460.46-29.5 463.06-24.75L463.06-24.75 450.81-14.5 448.46-14.5 461.11-25.05Q458.91-28 453.21-28L453.21-28Q450.71-28 449.01-27.48 447.31-26.95 445.88-25.53 444.46-24.1 443.76-21.38 443.06-18.65 443.06-14.5 443.06-10.35 443.76-7.63 444.46-4.9 445.88-3.48 447.31-2.05 449.01-1.53 450.71-1 453.21-1L453.21-1Q458.91-1 461.11-3.95L461.11-3.95ZM466.46-29L488.96-29 488.96-27.5 478.46-27.5 478.46 0 476.96 0 476.96-27.5 466.46-27.5 466.46-29ZM509.9-12.4L507.1-10.8 506.35-12.1 509.15-13.7Q512.6-15.6 512.6-19.75L512.6-19.75Q512.6-27.5 500.8-27.5L500.8-27.5 496.2-27.5 496.2 10 494.7 10 494.7-29 500.8-29Q507.4-29 510.75-26.58 514.1-24.15 514.1-19.75L514.1-19.75Q514.1-14.75 509.9-12.4L509.9-12.4ZM522.65-1.5L537.85-1.5 537.85 0 521.15 0 521.15-29 522.65-29 522.65-1.5ZM546.25 0L546.25-1.5 562.55-1.5 552.3-25.65 541.4 0 539.8 0 552.3-29.5 564.8 0 546.25 0ZM571.94-3.05Q569.24-6.6 569.24-14.5 569.24-22.4 571.94-25.95 574.64-29.5 580.89-29.5 587.14-29.5 589.89-26.05L589.89-26.05 588.79-25.05Q586.59-28 580.89-28L580.89-28Q578.39-28 576.69-27.48 574.99-26.95 573.57-25.53 572.14-24.1 571.44-21.38 570.74-18.65 570.74-14.5 570.74-10.35 571.44-7.63 572.14-4.9 573.57-3.48 574.99-2.05 576.69-1.53 578.39-1 580.89-1L580.89-1Q586.59-1 588.79-3.95L588.79-3.95 589.89-2.95Q587.14 0.5 580.89 0.5 574.64 0.5 571.94-3.05ZM615.64-3.95L616.74-2.95Q613.99 0.5 607.74 0.5 601.49 0.5 598.79-3.05 596.09-6.6 596.09-14.5 596.09-22.4 598.79-25.95 601.49-29.5 607.74-29.5L607.74-29.5Q614.99-29.5 617.59-24.75L617.59-24.75 605.34-14.5 602.99-14.5 615.64-25.05Q613.44-28 607.74-28L607.74-28Q605.24-28 603.54-27.48 601.84-26.95 600.42-25.53 598.99-24.1 598.29-21.38 597.59-18.65 597.59-14.5 597.59-10.35 598.29-7.63 598.99-4.9 600.42-3.48 601.84-2.05 603.54-1.53 605.24-1 607.74-1L607.74-1Q613.44-1 615.64-3.95L615.64-3.95Z" opacity="1" transform="matrix(1,0,0,1,0,0)" fill="#000000" class="slogan-text-1" data-fill-palette-color="secondary" id="text-1"></path></svg></g></svg></g></svg></g></svg></g><g><svg viewBox="0 0 205.5297723765111 205.5297723765111" height="205.5297723765111" width="205.5297723765111"><g><svg></svg></g><g id="icon-0"><svg viewBox="0 0 205.5297723765111 205.5297723765111" height="205.5297723765111" width="205.5297723765111"><g><path d="M0 102.765c0-56.755 46.009-102.765 102.765-102.765 56.755 0 102.765 46.009 102.765 102.765 0 56.755-46.009 102.765-102.765 102.765-56.755 0-102.765-46.009-102.765-102.765zM102.765 200.675c54.074 0 97.91-43.836 97.91-97.91 0-54.074-43.836-97.91-97.91-97.91-54.074 0-97.91 43.836-97.91 97.91 0 54.074 43.836 97.91 97.91 97.91z" data-fill-palette-color="accent" fill="#ff4136" stroke="transparent"></path></g><g transform="matrix(1,0,0,1,41.26074341050808,43.71788366865187)"><svg viewBox="0 0 123.00828555549494 118.09400503920735" height="118.09400503920735" width="123.00828555549494"><g><svg xmlns="http://www.w3.org/2000/svg" xmlns:xlink="http://www.w3.org/1999/xlink" version="1.1" x="0" y="0" viewBox="5.003903942635458 4.797827102816875 89.99973512113853 86.40417289718314" enable-background="new 0 0 100 100" xml:space="preserve" height="118.09400503920735" width="123.00828555549494" class="icon-cg-0" data-fill-palette-color="accent" id="cg-0"><path d="M74.198 77.702c-0.515 0-1.035-0.146-1.495-0.453-1.241-0.827-1.576-2.504-0.749-3.745 0.801-1.201 0.79-4.908 0.474-7.121-0.018-0.126-0.027-0.254-0.027-0.382 0-3.523 5.188-7.941 8.281-10.261 0.599-0.448 1.356-0.628 2.095-0.497 1.331 0.229 4.566 0.368 6.034-0.683 0.42-0.302 0.637-0.668 0.724-1.224 0.104-0.663 0.143-1.547-0.262-1.986-0.537-0.583-1.869-0.69-2.272-0.657-1.215 0.087-2.354-0.656-2.752-1.816-0.363-1.058-0.035-2.218 0.8-2.93 0.022-0.417-0.248-1.352-0.943-1.896-0.743-0.582-1.792-0.475-3.115 0.318-2.29 1.374-0.936 4.254-0.774 4.577 0.503 1.008 0.33 2.222-0.438 3.047-1.336 1.438-8.275 8.607-13.678 8.607-12.156 0-18.824 4.345-19.82 12.913-0.172 1.481-1.515 2.541-2.994 2.37-1.481-0.172-2.543-1.512-2.371-2.994C41.685 66.283 45.977 55.2 66.101 55.2c1.804 0 5.595-2.783 8.581-5.713-0.806-2.947-0.695-7.213 3.531-9.749 4.86-2.916 9.025-1.08 10.994 2.03 0.837 1.324 1.246 2.761 1.247 4.101 0.966 0.354 1.96 0.922 2.79 1.821 1.03 1.117 2.148 3.148 1.627 6.481-0.311 1.988-1.324 3.645-2.93 4.789-2.823 2.013-6.832 1.957-8.872 1.761-2.495 1.991-4.802 4.329-5.237 5.336 0.228 1.873 0.674 7.355-1.384 10.442C75.927 77.28 75.071 77.702 74.198 77.702z" fill="#ff4136" data-fill-palette-color="accent"></path><path d="M84.204 81.304c-0.256 0-0.518-0.037-0.776-0.115-1.429-0.429-2.239-1.934-1.811-3.362 2.122-7.073-4.21-12.187-4.481-12.4-1.166-0.923-1.371-2.618-0.453-3.788 0.918-1.169 2.604-1.381 3.777-0.468 0.391 0.304 9.524 7.558 6.329 18.209C86.438 80.548 85.365 81.304 84.204 81.304z" fill="#ff4136" data-fill-palette-color="accent"></path><path d="M13.094 81.303c-1.322 0-2.477-0.972-2.669-2.319-1.147-8.03 8.354-20.93 32.167-31.646 19.791-8.908 30.205 5.249 30.308 5.393 0.867 1.214 0.585 2.9-0.628 3.768-1.209 0.863-2.889 0.589-3.759-0.616-0.336-0.46-8.069-10.657-23.705-3.62C22.393 62.35 15.102 73.538 15.771 78.221c0.211 1.476-0.815 2.844-2.291 3.055C13.35 81.294 13.221 81.303 13.094 81.303z" fill="#ff4136" data-fill-palette-color="accent"></path><path d="M94.798 80.269c-0.418-1.009-1.402-1.666-2.495-1.666H7.697c-1.085 0-2.061 0.655-2.482 1.655-0.422 1.001-0.199 2.162 0.559 2.938 0.041 0.043 1.061 1.099 6.174 7.063 0.513 0.599 1.262 0.943 2.05 0.943h72.005c0.789 0 1.538-0.345 2.05-0.943 5.113-5.965 6.133-7.021 6.159-7.048C94.985 82.439 95.216 81.278 94.798 80.269z" fill="#ff4136" data-fill-palette-color="accent"></path><path d="M38.921 42.6c-0.691 0-1.382-0.264-1.909-0.791-1.055-1.054-1.055-2.765 0-3.818 0.881-0.882 2.67-5.032-0.558-12.295-3.854-8.67 2.151-14.512 2.408-14.756 1.083-1.026 2.792-0.982 3.817 0.099 1.021 1.076 0.983 2.773-0.083 3.802-0.375 0.372-3.44 3.639-1.208 8.661 4.312 9.701 1.678 16.072-0.558 18.308C40.303 42.336 39.612 42.6 38.921 42.6z" fill="#ff4136" data-fill-palette-color="accent"></path><path d="M53.459 37.199c-0.691 0-1.382-0.264-1.909-0.791-1.055-1.054-1.055-2.765 0-3.818 0.881-0.882 2.67-5.032-0.558-12.295-3.854-8.67 2.151-14.512 2.409-14.756 1.082-1.026 2.791-0.981 3.817 0.099 1.021 1.076 0.983 2.773-0.083 3.802-0.375 0.372-3.44 3.639-1.208 8.661 4.312 9.701 1.678 16.072-0.558 18.308C54.842 36.936 54.15 37.199 53.459 37.199z" fill="#ff4136" data-fill-palette-color="accent"></path><path d="M67.723 41.699c-0.691 0-1.382-0.264-1.909-0.791-1.055-1.054-1.055-2.764 0-3.818 0.881-0.881 2.67-5.031-0.558-12.295-3.854-8.67 2.151-14.512 2.408-14.756 1.083-1.025 2.791-0.98 3.817 0.1 1.021 1.075 0.983 2.772-0.083 3.802-0.375 0.371-3.441 3.639-1.208 8.661 4.311 9.7 1.678 16.071-0.558 18.307C69.105 41.436 68.414 41.699 67.723 41.699z" fill="#ff4136" data-fill-palette-color="accent"></path></svg></g></svg></g></svg></g></svg></g></svg></g><defs></defs></svg><rect width="395.52" height="129.7613687021204" fill="none" stroke="none" visibility="hidden"></rect></g></svg></g></svg>